<svg xmlns="http://www.w3.org/2000/svg" viewBox="0 0 512 512">
  <defs>
    <linearGradient id="bgGrad" x1="0%" y1="0%" x2="100%" y2="100%">
      <stop offset="0%" style="stop-color:#3b82f6"/>
      <stop offset="100%" style="stop-color:#1d4ed8"/>
    </linearGradient>
    <linearGradient id="folderGrad" x1="0%" y1="0%" x2="0%" y2="100%">
      <stop offset="0%" style="stop-color:#fbbf24"/>
      <stop offset="100%" style="stop-color:#f59e0b"/>
    </linearGradient>
  </defs>
  
  <!-- Background rounded square -->
  <rect x="32" y="32" width="448" height="448" rx="64" ry="64" fill="url(#bgGrad)"/>
  
  <!-- Folder body -->
  <path d="M120 180 L120 380 Q120 400 140 400 L372 400 Q392 400 392 380 L392 200 Q392 180 372 180 L260 180 L230 150 Q220 140 200 140 L140 140 Q120 140 120 160 L120 180 Z" fill="url(#folderGrad)"/>
  
  <!-- Folder tab highlight -->
  <path d="M120 180 L260 180 L230 150 Q220 140 200 140 L140 140 Q120 140 120 160 L120 180 Z" fill="#fcd34d" opacity="0.6"/>
  
  <!-- Tag 1 -->
  <g transform="translate(180, 240)">
    <rect x="0" y="0" width="80" height="32" rx="16" fill="white" opacity="0.95"/>
    <circle cx="16" cy="16" r="6" fill="#3b82f6"/>
  </g>
  
  <!-- Tag 2 -->
  <g transform="translate(270, 240)">
    <rect x="0" y="0" width="90" height="32" rx="16" fill="white" opacity="0.95"/>
    <circle cx="16" cy="16" r="6" fill="#10b981"/>
  </g>
  
  <!-- Tag 3 -->
  <g transform="translate(200, 290)">
    <rect x="0" y="0" width="110" height="32" rx="16" fill="white" opacity="0.95"/>
    <circle cx="16" cy="16" r="6" fill="#8b5cf6"/>
  </g>
  
  <!-- Sparkle / AI indicator -->
  <g transform="translate(340, 130)">
    <path d="M30 0 L35 20 L55 25 L35 30 L30 50 L25 30 L5 25 L25 20 Z" fill="#fbbf24"/>
    <path d="M55 35 L58 45 L68 48 L58 51 L55 61 L52 51 L42 48 L52 45 Z" fill="#fbbf24" opacity="0.7"/>
  </g>
</svg>
